<svg xmlns="http://www.w3.org/2000/svg" viewBox="0 0 320.158 102.554">
  <defs>
    <style>
      .cls-1 {
        fill: #f8fafb;
      }

      .cls-2 {
        fill: #f6db54;
        font-size: 16px;
        font-family: Akrobat-Bold, Akrobat;
        font-weight: 700;
        letter-spacing: 0.1em;
      }
    </style>
  </defs>
  <g id="Group_33" data-name="Group 33" transform="translate(-799 -70.446)">
    <g id="Group_15" data-name="Group 15" transform="translate(863.424 70.446)">
      <g id="Group_10" data-name="Group 10" transform="translate(85.899)">
        <path id="Path_29" data-name="Path 29" class="cls-1" d="M209.692,3.169A3.132,3.132,0,0,0,206.523,0H180.051A3.84,3.84,0,0,0,176.2,3.754a3.132,3.132,0,0,0,3.169,3.169h9.409l-6.143,34.662a3.365,3.365,0,0,0,.731,2.73,3.084,3.084,0,0,0,2.486,1.121,4.072,4.072,0,0,0,3.949-3.315l6.191-35.149h9.848A3.949,3.949,0,0,0,209.692,3.169Z" transform="translate(-176.2)"/>
        <path id="Path_30" data-name="Path 30" class="cls-1" d="M242.95,26.2c-12.968,0-17.55,11.213-17.55,20.768,0,7.8,4.339,12.139,12.236,12.139,12.968,0,17.55-11.213,17.55-20.768C255.187,30.49,250.848,26.2,242.95,26.2Zm-4.68,26.374c-4.144,0-5.9-1.8-5.9-6.094,0-3.218.731-13.748,9.945-13.748,4.144,0,5.9,1.8,5.9,6.094C248.215,42.044,247.533,52.574,238.27,52.574Z" transform="translate(-201.415 -13.427)"/>
        <path id="Path_31" data-name="Path 31" class="cls-1" d="M315.628,27a3.869,3.869,0,0,0-3.8,3.218l-2.876,16.234c-.682,3.8-2.243,6.338-7.556,6.338-4.631,0-5.021-1.95-5.021-3.754a9.423,9.423,0,0,1,.244-2.048l2.876-16.283h0a3.073,3.073,0,0,0-3.12-3.656,3.818,3.818,0,0,0-3.754,3.218l-2.876,16.283a25.522,25.522,0,0,0-.341,3.608c0,2.828,1.121,9.458,11.554,9.458,11.31,0,13.894-7.166,14.82-12.529L318.651,30.8a3.13,3.13,0,0,0-.682-2.633A2.662,2.662,0,0,0,315.628,27Z" transform="translate(-234.214 -13.837)"/>
        <path id="Path_32" data-name="Path 32" class="cls-1" d="M368.621,26.5a13.364,13.364,0,0,0-7.7,2.389,2.591,2.591,0,0,0-.585-1.073,3.168,3.168,0,0,0-2.437-1.073,3.819,3.819,0,0,0-3.754,3.218l-4.485,25.3a3.073,3.073,0,0,0,3.12,3.656A3.818,3.818,0,0,0,356.53,55.7l2.486-13.943c.926-5.411,4.193-8.531,8.921-8.531a3.736,3.736,0,0,0,3.754-3.656A3.028,3.028,0,0,0,368.621,26.5Z" transform="translate(-265.074 -13.581)"/>
      </g>
      <g id="Group_12" data-name="Group 12" transform="translate(0 1.999)">
        <g id="Group_11" data-name="Group 11">
          <path id="Path_33" data-name="Path 33" class="cls-1" d="M31.054,38.908V29.889H20.622a1.95,1.95,0,0,1,0-3.9H33.2a2.022,2.022,0,0,1,1.95,1.95v10.92a3,3,0,0,1-.829,2.048A18.332,18.332,0,0,1,19.4,47.781C7.361,47.781,0,41.3,0,25.989,0,11.218,7.361,4.1,19.452,4.1c5.9,0,11.115,2.535,14.04,6.63a2.359,2.359,0,0,1,.439,1.316,1.977,1.977,0,0,1-2,2,1.9,1.9,0,0,1-1.609-.829A13.456,13.456,0,0,0,19.452,7.951c-9.6,0-15.113,5.8-15.113,18.038,0,12.968,5.509,17.94,15.064,17.94C25.253,43.929,28.958,41.492,31.054,38.908Z" transform="translate(0 -4.1)"/>
        </g>
      </g>
      <g id="Group_14" data-name="Group 14" transform="translate(38.416 1.414)">
        <g id="Group_13" data-name="Group 13">
          <path id="Path_34" data-name="Path 34" class="cls-1" d="M100.933,2.9A22.116,22.116,0,0,0,78.8,25.033v.683c.341,6.776,5.509,9.994,11.31,9.994a17.445,17.445,0,0,0,6.045-1.121l-2.194-1.511.244-.731,3.559.439a62.3,62.3,0,0,1,4.973-5.655L95.278,22.79s-.878-.39-.293-.975c.487-.488.829-.78,1.365-.78a1.212,1.212,0,0,1,.39.049c.244.049,1.365.293,2.828.634l1.17-1.073a.876.876,0,0,1,.439-.2.6.6,0,0,1,.488.244.634.634,0,0,1-.049.926l-.439.439c.585.146,1.17.244,1.755.39l1.17-1.073a.876.876,0,0,1,.439-.2.6.6,0,0,1,.488.244.634.634,0,0,1-.049.926l-.439.439c.926.195,1.755.39,2.34.487a46.341,46.341,0,0,1,6.581-4.778,1.9,1.9,0,0,1,.926-.293,1.181,1.181,0,0,1,.926.439c.78.829-.049,1.9-.049,1.9a49.8,49.8,0,0,1-5.411,6.094c.049.536.146,1.414.244,2.34l.439-.439a.876.876,0,0,1,.439-.195.6.6,0,0,1,.487.244.634.634,0,0,1-.049.926l-1.17,1.073c.049.585.146,1.17.2,1.755l.439-.439a.876.876,0,0,1,.439-.2.6.6,0,0,1,.487.244.634.634,0,0,1-.049.926l-1.17,1.073c.146,1.463.292,2.633.341,2.876.1.78-.244,1.121-.878,1.658a.778.778,0,0,1-.39.146c-.39,0-.536-.536-.536-.536l-3.559-7.9a64.862,64.862,0,0,1-6.143,4.388L99.47,38.2l-.78.146L97.423,36.1A15.3,15.3,0,0,1,86.21,41.316h-.341a22.157,22.157,0,0,0,37.051-16.38A21.94,21.94,0,0,0,100.933,2.9Z" transform="translate(-78.8 -2.9)"/>
        </g>
      </g>
    </g>
    <g id="Group_32" data-name="Group 32">
      <rect id="Rectangle_28" data-name="Rectangle 28" class="cls-1" width="320.158" height="1" rx="0.5" transform="translate(799 135)"/>
      <text id="TURISMO_É_O_NOSSO_NEGÓCIO" data-name="TURISMO É O NOSSO NEGÓCIO" class="cls-2" transform="translate(959 170)"><tspan x="-107.776" y="0">TURISMO É O NOSSO NEGÓCIO</tspan></text>
    </g>
  </g>
</svg>
