<svg id="Group_15" data-name="Group 15" xmlns="http://www.w3.org/2000/svg" viewBox="0 0 117.755 28">
  <defs>
    <style>
      .cls-1 {
        fill: #fff;
      }
    </style>
  </defs>
  <g id="Group_10" data-name="Group 10" transform="translate(52.541)">
    <path id="Path_29" data-name="Path 29" class="cls-1" d="M196.686,1.938A1.916,1.916,0,0,0,194.747,0H178.556A2.349,2.349,0,0,0,176.2,2.3a1.916,1.916,0,0,0,1.938,1.938h5.755l-3.757,21.2a2.058,2.058,0,0,0,.447,1.67,1.887,1.887,0,0,0,1.521.686,2.491,2.491,0,0,0,2.415-2.028l3.787-21.5h6.023A2.415,2.415,0,0,0,196.686,1.938Z" transform="translate(-176.2)"/>
    <path id="Path_30" data-name="Path 30" class="cls-1" d="M236.135,26.2c-7.932,0-10.735,6.858-10.735,12.7,0,4.771,2.654,7.425,7.485,7.425,7.932,0,10.735-6.858,10.735-12.7C243.619,28.824,240.965,26.2,236.135,26.2Zm-2.863,16.132c-2.535,0-3.608-1.1-3.608-3.727,0-1.968.447-8.409,6.083-8.409,2.535,0,3.608,1.1,3.608,3.727C239.355,35.891,238.938,42.332,233.272,42.332Z" transform="translate(-210.729 -18.387)"/>
    <path id="Path_31" data-name="Path 31" class="cls-1" d="M305.443,27a2.367,2.367,0,0,0-2.326,1.968l-1.759,9.93c-.417,2.326-1.372,3.876-4.622,3.876-2.833,0-3.071-1.193-3.071-2.3a5.764,5.764,0,0,1,.149-1.252l1.759-9.96h0a1.88,1.88,0,0,0-1.908-2.236,2.336,2.336,0,0,0-2.3,1.968l-1.759,9.96a15.607,15.607,0,0,0-.209,2.207c0,1.73.686,5.785,7.067,5.785,6.918,0,8.5-4.383,9.065-7.663l1.759-9.96a1.915,1.915,0,0,0-.417-1.61A1.628,1.628,0,0,0,305.443,27Z" transform="translate(-255.645 -18.949)"/>
    <path id="Path_32" data-name="Path 32" class="cls-1" d="M361.24,26.5a8.174,8.174,0,0,0-4.711,1.461,1.585,1.585,0,0,0-.358-.656,1.938,1.938,0,0,0-1.491-.656,2.336,2.336,0,0,0-2.3,1.968L349.64,44.093a1.879,1.879,0,0,0,1.908,2.236,2.335,2.335,0,0,0,2.3-1.968l1.521-8.528c.567-3.31,2.564-5.218,5.457-5.218a2.285,2.285,0,0,0,2.3-2.236A1.852,1.852,0,0,0,361.24,26.5Z" transform="translate(-297.904 -18.598)"/>
  </g>
  <g id="Group_12" data-name="Group 12" transform="translate(0 1.223)">
    <g id="Group_11" data-name="Group 11">
      <path id="Path_33" data-name="Path 33" class="cls-1" d="M18.995,25.391V19.874H12.613a1.193,1.193,0,0,1,0-2.386h7.693A1.237,1.237,0,0,1,21.5,18.681v6.679a1.833,1.833,0,0,1-.507,1.252,11.213,11.213,0,0,1-9.125,4.2C4.5,30.818,0,26.852,0,17.489,0,8.454,4.5,4.1,11.9,4.1a10.437,10.437,0,0,1,8.588,4.055,1.443,1.443,0,0,1,.268.805,1.209,1.209,0,0,1-1.223,1.223,1.161,1.161,0,0,1-.984-.507,8.231,8.231,0,0,0-6.65-3.22C6.023,6.456,2.654,10,2.654,17.489c0,7.932,3.37,10.973,9.214,10.973A8.791,8.791,0,0,0,18.995,25.391Z" transform="translate(0 -4.1)"/>
    </g>
  </g>
  <g id="Group_14" data-name="Group 14" transform="translate(23.497 0.865)">
    <g id="Group_13" data-name="Group 13">
      <path id="Path_34" data-name="Path 34" class="cls-1" d="M92.338,2.9A13.528,13.528,0,0,0,78.8,16.438v.417c.209,4.145,3.37,6.113,6.918,6.113a10.67,10.67,0,0,0,3.7-.686l-1.342-.924.149-.447,2.177.268a38.106,38.106,0,0,1,3.042-3.459l-4.562-2.654s-.537-.239-.179-.6c.3-.3.507-.477.835-.477a.741.741,0,0,1,.239.03c.149.03.835.179,1.729.388l.716-.656a.536.536,0,0,1,.268-.119.367.367,0,0,1,.3.149.388.388,0,0,1-.03.567l-.268.268c.358.089.716.149,1.073.239l.716-.656a.536.536,0,0,1,.268-.119.367.367,0,0,1,.3.149.388.388,0,0,1-.03.567l-.268.268c.567.119,1.074.239,1.431.3A28.345,28.345,0,0,1,100,12.442a1.163,1.163,0,0,1,.567-.179.723.723,0,0,1,.567.268c.477.507-.03,1.163-.03,1.163a30.459,30.459,0,0,1-3.31,3.727c.03.328.089.865.149,1.431l.268-.268a.536.536,0,0,1,.268-.119.367.367,0,0,1,.3.149.388.388,0,0,1-.03.567l-.716.656c.03.358.089.716.119,1.073l.268-.268a.536.536,0,0,1,.268-.119.367.367,0,0,1,.3.149.388.388,0,0,1-.03.567l-.716.656c.089.895.179,1.61.209,1.759.06.477-.149.686-.537,1.014a.476.476,0,0,1-.239.089c-.239,0-.328-.328-.328-.328L95.171,19.6a39.674,39.674,0,0,1-3.757,2.684l.03,2.207-.477.089-.775-1.372A9.361,9.361,0,0,1,83.332,26.4h-.209a13.552,13.552,0,0,0,22.662-10.019A13.42,13.42,0,0,0,92.338,2.9Z" transform="translate(-78.8 -2.9)"/>
    </g>
  </g>
</svg>
